<?xml version="1.0" encoding="utf-8"?>
<!-- Generator: Adobe Illustrator 24.0.2, SVG Export Plug-In . SVG Version: 6.00 Build 0)  -->
<svg version="1.1" id="Capa_1" xmlns="http://www.w3.org/2000/svg" xmlns:xlink="http://www.w3.org/1999/xlink" x="0px" y="0px"
	 viewBox="0 0 30 30" style="enable-background:new 0 0 30 30;" xml:space="preserve">
<style type="text/css">
	.st0{fill:#FFFFFF;}
	.st1{fill-rule:evenodd;clip-rule:evenodd;fill:#FFFFFF;}
</style>
<g>
	<path class="st0" d="M0.5,29.54l2.08-7.78c-1.18-2.13-1.8-4.52-1.8-6.94c0-7.92,6.44-14.36,14.36-14.36
		c7.92,0,14.36,6.44,14.36,14.36c0,7.92-6.44,14.36-14.36,14.36c-2.38,0-4.72-0.6-6.83-1.74L0.5,29.54z M8.7,24.53l0.49,0.29
		c1.81,1.08,3.86,1.65,5.95,1.65c6.42,0,11.65-5.22,11.65-11.65c0-6.42-5.22-11.65-11.65-11.65C8.72,3.18,3.5,8.4,3.5,14.82
		c0,2.12,0.59,4.21,1.7,6.04l0.3,0.5L4.34,25.7L8.7,24.53z"/>
	<path class="st1" d="M20.48,16.82c-0.59-0.35-1.36-0.75-2.06-0.46c-0.53,0.22-0.88,1.05-1.22,1.48c-0.18,0.22-0.39,0.25-0.66,0.14
		c-2.01-0.8-3.54-2.14-4.65-3.98c-0.19-0.29-0.15-0.51,0.07-0.78c0.33-0.39,0.75-0.84,0.84-1.37c0.09-0.53-0.16-1.15-0.38-1.62
		c-0.28-0.6-0.59-1.46-1.2-1.81c-0.56-0.31-1.29-0.14-1.78,0.27c-0.85,0.7-1.27,1.79-1.25,2.87c0,0.31,0.04,0.61,0.11,0.91
		c0.17,0.71,0.5,1.38,0.87,2.01c0.28,0.48,0.58,0.94,0.91,1.39c1.07,1.46,2.41,2.72,3.95,3.67c0.77,0.47,1.6,0.89,2.46,1.17
		c0.97,0.32,1.83,0.65,2.87,0.45c1.09-0.21,2.17-0.88,2.6-1.94c0.13-0.31,0.19-0.66,0.12-0.99C21.95,17.55,21.03,17.15,20.48,16.82z
		"/>
</g>
</svg>
