<?xml version="1.0" encoding="utf-8"?>
<!-- Generator: Adobe Illustrator 24.0.2, SVG Export Plug-In . SVG Version: 6.00 Build 0)  -->
<svg version="1.1" id="Capa_1" xmlns="http://www.w3.org/2000/svg" xmlns:xlink="http://www.w3.org/1999/xlink" x="0px" y="0px"
	 viewBox="0 0 30 30" style="enable-background:new 0 0 30 30;" xml:space="preserve">
<style type="text/css">
	.st0{fill:#FFFFFF;}
</style>
<path class="st0" d="M27.48,12.22c-0.24,0.02-0.48,0.04-0.72,0.04c-2.63,0-5.08-1.32-6.52-3.52v12c0,4.9-3.97,8.87-8.87,8.87
	c-4.9,0-8.87-3.97-8.87-8.87c0-4.9,3.97-8.87,8.87-8.87l0,0c0.19,0,0.37,0.02,0.55,0.03v4.37c-0.18-0.02-0.36-0.06-0.55-0.06
	c-2.5,0-4.53,2.03-4.53,4.53c0,2.5,2.03,4.53,4.53,4.53c2.5,0,4.71-1.97,4.71-4.47l0.04-20.37h4.18c0.39,3.75,3.42,6.68,7.18,6.95
	L27.48,12.22"/>
</svg>
