<?xml version="1.0" encoding="utf-8"?>
<!-- Generator: Adobe Illustrator 24.0.2, SVG Export Plug-In . SVG Version: 6.00 Build 0)  -->
<svg version="1.1" id="Capa_1" xmlns="http://www.w3.org/2000/svg" xmlns:xlink="http://www.w3.org/1999/xlink" x="0px" y="0px"
	 viewBox="0 0 30 30" style="enable-background:new 0 0 30 30;" xml:space="preserve">
<style type="text/css">
	.st0{fill:#FFFFFF;}
</style>
<g>
	<g>
		<path class="st0" d="M22.88,5.43c-0.96,0-1.75,0.78-1.75,1.75c0,0.96,0.78,1.75,1.75,1.75c0.96,0,1.75-0.78,1.75-1.75
			C24.63,6.21,23.85,5.43,22.88,5.43z"/>
		<path class="st0" d="M15.12,7.67c-4.04,0-7.33,3.29-7.33,7.33c0,4.04,3.29,7.33,7.33,7.33c4.04,0,7.33-3.29,7.33-7.33
			C22.46,10.96,19.17,7.67,15.12,7.67z M15.12,19.7c-2.59,0-4.7-2.11-4.7-4.7s2.11-4.7,4.7-4.7c2.59,0,4.7,2.11,4.7,4.7
			S17.71,19.7,15.12,19.7z"/>
		<path class="st0" d="M20.94,29.89H9.06c-4.93,0-8.94-4.01-8.94-8.94V9.06c0-4.93,4.01-8.94,8.94-8.94h11.89
			c4.93,0,8.94,4.01,8.94,8.94v11.89C29.89,25.88,25.88,29.89,20.94,29.89z M9.06,2.91c-3.39,0-6.14,2.76-6.14,6.14v11.89
			c0,3.39,2.76,6.14,6.14,6.14h11.89c3.39,0,6.14-2.76,6.14-6.14V9.06c0-3.39-2.76-6.14-6.14-6.14H9.06z"/>
	</g>
</g>
</svg>
